<svg width="30" height="30" viewBox="0 0 30 30" fill="none" xmlns="http://www.w3.org/2000/svg">
<path d="M4.8125 10.7749C4.63005 9.95304 4.65806 9.09843 4.89394 8.2903C5.12982 7.48217 5.56593 6.74668 6.16183 6.15203C6.75773 5.55738 7.49413 5.12281 8.30276 4.88862C9.11138 4.65443 9.96604 4.62821 10.7875 4.81238C11.2396 4.10525 11.8625 3.52333 12.5987 3.12023C13.3349 2.71714 14.1607 2.50586 15 2.50586C15.8393 2.50586 16.6651 2.71714 17.4013 3.12023C18.1375 3.52333 18.7604 4.10525 19.2125 4.81238C20.0352 4.62741 20.8913 4.65351 21.7012 4.88827C22.5112 5.12303 23.2485 5.5588 23.8448 6.15507C24.4411 6.75134 24.8768 7.48872 25.1116 8.29863C25.3464 9.10854 25.3725 9.96467 25.1875 10.7874C25.8946 11.2395 26.4765 11.8624 26.8796 12.5986C27.2827 13.3348 27.494 14.1606 27.494 14.9999C27.494 15.8392 27.2827 16.665 26.8796 17.4012C26.4765 18.1374 25.8946 18.7602 25.1875 19.2124C25.3717 20.0338 25.3454 20.8885 25.1113 21.6971C24.8771 22.5057 24.4425 23.2421 23.8478 23.838C23.2532 24.4339 22.5177 24.8701 21.7096 25.1059C20.9014 25.3418 20.0468 25.3698 19.225 25.1874C18.7734 25.8972 18.1501 26.4816 17.4127 26.8865C16.6752 27.2914 15.8475 27.5037 15.0062 27.5037C14.165 27.5037 13.3373 27.2914 12.5998 26.8865C11.8624 26.4816 11.239 25.8972 10.7875 25.1874C9.96604 25.3715 9.11138 25.3453 8.30276 25.1111C7.49413 24.8769 6.75773 24.4424 6.16183 23.8477C5.56593 23.2531 5.12982 22.5176 4.89394 21.7095C4.65806 20.9013 4.63005 20.0467 4.8125 19.2249C4.09994 18.7739 3.51301 18.1501 3.10631 17.4114C2.6996 16.6727 2.48633 15.8431 2.48633 14.9999C2.48633 14.1566 2.6996 13.3271 3.10631 12.5884C3.51301 11.8497 4.09994 11.2258 4.8125 10.7749Z" stroke="black" stroke-width="2" stroke-linecap="round" stroke-linejoin="round"/>
<path d="M15 9V21" stroke="black" stroke-width="2" stroke-linecap="round" stroke-linejoin="round"/>
<path d="M20.196 12L9.80396 18" stroke="black" stroke-width="2" stroke-linecap="round" stroke-linejoin="round"/>
<path d="M9.80396 12L20.196 18" stroke="black" stroke-width="2" stroke-linecap="round" stroke-linejoin="round"/>
</svg>
