<svg width="120" height="30" viewBox="0 0 120 30" fill="none" xmlns="http://www.w3.org/2000/svg">
<rect width="30" height="30" rx="15" fill="#FE4D01"/>
<path d="M4.8125 10.7749C4.63005 9.95304 4.65806 9.09843 4.89394 8.2903C5.12982 7.48217 5.56593 6.74668 6.16183 6.15203C6.75773 5.55738 7.49413 5.12281 8.30276 4.88862C9.11138 4.65443 9.96604 4.62821 10.7875 4.81238C11.2396 4.10525 11.8625 3.52333 12.5987 3.12023C13.3349 2.71714 14.1607 2.50586 15 2.50586C15.8393 2.50586 16.6651 2.71714 17.4013 3.12023C18.1375 3.52333 18.7604 4.10525 19.2125 4.81238C20.0352 4.62741 20.8913 4.65351 21.7012 4.88827C22.5112 5.12303 23.2485 5.5588 23.8448 6.15507C24.4411 6.75134 24.8768 7.48872 25.1116 8.29863C25.3464 9.10854 25.3725 9.96467 25.1875 10.7874C25.8946 11.2395 26.4765 11.8624 26.8796 12.5986C27.2827 13.3348 27.494 14.1606 27.494 14.9999C27.494 15.8392 27.2827 16.665 26.8796 17.4012C26.4765 18.1374 25.8946 18.7602 25.1875 19.2124C25.3717 20.0338 25.3454 20.8885 25.1113 21.6971C24.8771 22.5057 24.4425 23.2421 23.8478 23.838C23.2532 24.4339 22.5177 24.8701 21.7096 25.1059C20.9014 25.3418 20.0468 25.3698 19.225 25.1874C18.7734 25.8972 18.1501 26.4816 17.4127 26.8865C16.6752 27.2914 15.8475 27.5037 15.0062 27.5037C14.165 27.5037 13.3373 27.2914 12.5998 26.8865C11.8624 26.4816 11.239 25.8972 10.7875 25.1874C9.96604 25.3715 9.11138 25.3453 8.30276 25.1111C7.49413 24.8769 6.75773 24.4424 6.16183 23.8477C5.56593 23.2531 5.12982 22.5176 4.89394 21.7095C4.65806 20.9013 4.63005 20.0467 4.8125 19.2249C4.09994 18.7739 3.51301 18.1501 3.10631 17.4114C2.6996 16.6727 2.48633 15.8431 2.48633 14.9999C2.48633 14.1566 2.6996 13.3271 3.10631 12.5884C3.51301 11.8497 4.09994 11.2258 4.8125 10.7749Z" stroke="white" stroke-width="2" stroke-linecap="round" stroke-linejoin="round"/>
<path d="M15 9V21" stroke="white" stroke-width="2" stroke-linecap="round" stroke-linejoin="round"/>
<path d="M20.196 12L9.80396 18" stroke="white" stroke-width="2" stroke-linecap="round" stroke-linejoin="round"/>
<path d="M9.80396 12L20.196 18" stroke="white" stroke-width="2" stroke-linecap="round" stroke-linejoin="round"/>
<path d="M38.88 23V9.4H43.02C44.0333 9.4 44.8333 9.54667 45.42 9.84C46.02 10.1333 46.4467 10.5467 46.7 11.08C46.9667 11.6133 47.1 12.24 47.1 12.96V13.52C47.1 14.5733 46.6467 15.38 45.74 15.94C46.38 16.1933 46.8667 16.56 47.2 17.04C47.5333 17.52 47.7 18.0933 47.7 18.76V19.32C47.7 20.0533 47.5667 20.7 47.3 21.26C47.0333 21.8067 46.5933 22.2333 45.98 22.54C45.3667 22.8467 44.5467 23 43.52 23H38.88ZM43.02 11.6H41.28V15H43.02C43.5533 15 43.9533 14.88 44.22 14.64C44.5 14.3867 44.64 14.0467 44.64 13.62V12.96C44.64 12.5333 44.5 12.2 44.22 11.96C43.9533 11.72 43.5533 11.6 43.02 11.6ZM43.52 17.2H41.28V20.8H43.52C44.08 20.8 44.5067 20.6667 44.8 20.4C45.0933 20.1333 45.24 19.7733 45.24 19.32V18.66C45.24 18.2067 45.0933 17.8533 44.8 17.6C44.5067 17.3333 44.08 17.2 43.52 17.2ZM52.6392 10.94H50.2192V8.56H52.6392V10.94ZM52.5792 23H50.2792V12.86H52.5792V23ZM64.048 17.32V18.52C64.048 19.9333 63.6613 21.0667 62.888 21.92C62.1146 22.7733 61.0213 23.2 59.608 23.2C58.1946 23.2 57.1013 22.7733 56.328 21.92C55.5546 21.0667 55.168 19.9333 55.168 18.52V17.32C55.168 15.9067 55.548 14.78 56.308 13.94C57.0813 13.0867 58.1813 12.66 59.608 12.66C61.0346 12.66 62.128 13.0867 62.888 13.94C63.6613 14.78 64.048 15.9067 64.048 17.32ZM61.688 17.32C61.688 16.5067 61.508 15.8733 61.148 15.42C60.788 14.9533 60.2746 14.72 59.608 14.72C58.9413 14.72 58.428 14.9533 58.068 15.42C57.708 15.8733 57.528 16.5067 57.528 17.32V18.52C57.528 19.3333 57.708 19.9733 58.068 20.44C58.428 20.9067 58.9413 21.14 59.608 21.14C60.2746 21.14 60.788 20.9067 61.148 20.44C61.508 19.9733 61.688 19.3333 61.688 18.52V17.32ZM71.5869 14.8C71.2535 14.8 70.8735 14.88 70.4469 15.04C70.0202 15.2 69.5135 15.5133 68.9269 15.98V23H66.6269V12.86H68.8069V14.22C69.4335 13.6733 70.0269 13.28 70.5869 13.04C71.1469 12.7867 71.7135 12.66 72.2869 12.66C73.2602 12.66 74.0002 12.9733 74.5069 13.6C75.0135 14.2133 75.2669 15.08 75.2669 16.2V23H72.9669V16.48C72.9669 15.36 72.5069 14.8 71.5869 14.8ZM86.0066 22.42C85.3132 22.7 84.6599 22.9 84.0466 23.02C83.4332 23.14 82.8532 23.2 82.3066 23.2C80.7999 23.2 79.6599 22.7733 78.8866 21.92C78.1132 21.0667 77.7266 19.9333 77.7266 18.52V17.32C77.7266 16.3733 77.8999 15.5533 78.2466 14.86C78.5932 14.1667 79.0866 13.6267 79.7266 13.24C80.3666 12.8533 81.1199 12.66 81.9866 12.66C82.6932 12.66 83.3532 12.8067 83.9666 13.1C84.5932 13.38 85.0999 13.8267 85.4866 14.44C85.8866 15.04 86.0866 15.8133 86.0866 16.76C86.0866 17.04 86.0666 17.34 86.0266 17.66C85.9866 17.9667 85.9199 18.2933 85.8266 18.64H79.9466C79.9732 19.4667 80.1799 20.0867 80.5666 20.5C80.9532 20.9133 81.5732 21.12 82.4266 21.12C82.8799 21.12 83.3466 21.0667 83.8266 20.96C84.3199 20.8533 84.8266 20.6933 85.3466 20.48L86.0066 22.42ZM81.9866 14.6C81.3732 14.6 80.8932 14.8 80.5466 15.2C80.2132 15.5867 80.0199 16.1467 79.9666 16.88H83.8066C83.8199 16.8133 83.8266 16.7533 83.8266 16.7C83.8266 16.6333 83.8266 16.5733 83.8266 16.52C83.8266 15.88 83.6466 15.4 83.2866 15.08C82.9266 14.76 82.4932 14.6 81.9866 14.6ZM91.5763 21.2C92.0696 21.2 92.4763 21.12 92.7963 20.96C93.1163 20.7867 93.2763 20.5333 93.2763 20.2C93.2763 19.9067 93.1696 19.68 92.9563 19.52C92.7563 19.3467 92.3896 19.1933 91.8563 19.06L90.7163 18.76C89.8363 18.5333 89.1829 18.1533 88.7563 17.62C88.3429 17.0867 88.1363 16.4533 88.1363 15.72C88.1363 14.8533 88.4363 14.1267 89.0363 13.54C89.6363 12.9533 90.5629 12.66 91.8163 12.66C92.3229 12.66 92.8563 12.72 93.4163 12.84C93.9763 12.96 94.5629 13.1533 95.1763 13.42L94.5163 15.38C93.9563 15.1133 93.4496 14.9267 92.9963 14.82C92.5429 14.7133 92.1429 14.66 91.7963 14.66C90.8496 14.66 90.3763 14.98 90.3763 15.62C90.3763 15.8733 90.4563 16.0733 90.6163 16.22C90.7896 16.3667 91.1029 16.5 91.5563 16.62L92.6963 16.92C93.6696 17.1733 94.3763 17.56 94.8163 18.08C95.2696 18.6 95.4963 19.2533 95.4963 20.04C95.4963 20.9733 95.1763 21.7333 94.5363 22.32C93.9096 22.9067 92.9163 23.2 91.5563 23.2C90.3963 23.2 89.1763 22.9333 87.8963 22.4L88.5163 20.5C89.1429 20.7533 89.7096 20.9333 90.2163 21.04C90.7229 21.1467 91.1763 21.2 91.5763 21.2ZM103.957 22.66C103.611 22.82 103.211 22.9467 102.757 23.04C102.304 23.1467 101.844 23.2 101.377 23.2C100.604 23.2 99.984 23.04 99.5173 22.72C99.0507 22.4 98.7107 21.9533 98.4973 21.38C98.2973 20.8067 98.1973 20.1533 98.1973 19.42V14.86H96.5573V12.86H98.1973V10.22H100.497V12.86H103.657V14.86H100.497V19.42C100.497 20.0333 100.611 20.46 100.837 20.7C101.077 20.9267 101.417 21.04 101.857 21.04C102.071 21.04 102.297 21.02 102.537 20.98C102.791 20.9267 103.071 20.84 103.377 20.72L103.957 22.66ZM105.747 20.14V8.2H108.047V20.14C108.047 20.34 108.093 20.5333 108.187 20.72C108.293 20.8933 108.493 20.98 108.787 20.98H109.107V23.1H108.547C107.787 23.1 107.207 22.9533 106.807 22.66C106.407 22.3667 106.127 21.9933 105.967 21.54C105.82 21.0867 105.747 20.62 105.747 20.14ZM115.434 24C114.994 25.2267 114.434 26.1067 113.754 26.64C113.074 27.1867 112.141 27.46 110.954 27.46V25.16C111.661 25.1333 112.214 24.9733 112.614 24.68C113.027 24.4 113.334 24.0067 113.534 23.5L113.714 23.04L110.094 12.86H112.374L114.114 17.92L114.794 20.06L115.454 17.92L117.114 12.86H119.394L115.434 24Z" fill="white"/>
</svg>
